<?xml version="1.0" standalone="no"?>
<!DOCTYPE svg PUBLIC "-//W3C//DTD SVG 20010904//EN"
 "http://www.w3.org/TR/2001/REC-SVG-20010904/DTD/svg10.dtd">
<svg version="1.0" xmlns="http://www.w3.org/2000/svg"
 width="902.000000pt" height="902.000000pt" viewBox="0 0 902.000000 902.000000"
 preserveAspectRatio="xMidYMid meet">
<metadata>
Created by potrace 1.11, written by Peter Selinger 2001-2013
</metadata>
<g transform="translate(0.000000,902.000000) scale(0.100000,-0.100000)"
fill="#000000" stroke="none">
<path d="M5184 8361 c-2 -2 -4 -1588 -4 -3523 l0 -3518 73 0 c39 -1 347 -1
684 -1 l612 0 1 -255 c1 -302 7 -327 93 -395 l49 -39 483 0 482 0 39 26 c45
31 56 44 86 99 21 38 22 53 22 302 l1 262 80 0 c132 0 217 25 310 90 108 75
181 188 201 313 4 24 7 1141 8 2483 l2 2440 72 2 c40 0 88 -3 106 -8 39 -11
106 -80 106 -109 0 -18 -7 -20 -80 -20 -76 0 -80 -1 -80 -22 -1 -30 -1 -1239
0 -1298 l0 -45 225 2 c124 1 234 2 245 2 20 1 20 8 20 681 l0 680 -35 0 c-30
0 -35 4 -40 28 -25 122 -77 211 -160 274 -86 65 -160 86 -315 87 l-66 1 0 518
c-1 381 -4 532 -14 572 -39 168 -189 321 -355 361 -38 9 -396 12 -1448 13
-769 1 -1400 -1 -1403 -3z"/>
<path d="M4868 8335 c-2 -2 -210 -5 -463 -9 -253 -4 -505 -8 -560 -11 -250
-10 -424 -17 -465 -20 -217 -12 -284 -17 -303 -20 -12 -2 -61 -6 -108 -10
-277 -20 -470 -72 -663 -177 -202 -111 -392 -290 -518 -488 -75 -117 -268
-487 -368 -705 -120 -260 -285 -650 -373 -880 l-34 -90 -63 0 c-34 0 -65 2
-68 5 -4 3 -8 58 -8 122 -1 65 -7 137 -13 160 -25 90 -120 183 -211 208 -19 5
-115 10 -212 10 -216 0 -263 -13 -344 -94 -126 -126 -121 -339 11 -453 48 -42
121 -76 235 -109 119 -35 120 -35 370 -41 124 -3 226 -6 227 -7 6 -6 -64 -225
-103 -320 -90 -219 -196 -408 -358 -640 -117 -167 -186 -285 -222 -381 -89
-237 -117 -397 -117 -650 0 -95 11 -294 17 -304 2 -3 7 -33 10 -66 4 -33 36
-206 72 -385 l66 -325 0 -992 c0 -546 2 -1002 5 -1013 5 -20 13 -20 708 -20
l703 0 3 22 c2 13 4 172 4 353 l-1 330 1598 0 1598 -1 0 3497 0 3497 -25 4
c-13 3 -26 4 -27 3z"/>
</g>
</svg>
